<svg id="visual" viewBox="0 0 1920 1080" width="1920" height="1080" xmlns="http://www.w3.org/2000/svg" xmlns:xlink="http://www.w3.org/1999/xlink" version="1.1"><rect x="0" y="0" width="1920" height="1080" fill="#222"></rect><path d="M0 731L45.7 718.7C91.3 706.3 182.7 681.7 274.2 693.5C365.7 705.3 457.3 753.7 548.8 774.2C640.3 794.7 731.7 787.3 823 764.7C914.3 742 1005.7 704 1097 690.2C1188.3 676.3 1279.7 686.7 1371.2 695.5C1462.7 704.3 1554.3 711.7 1645.8 709.7C1737.3 707.7 1828.7 696.3 1874.3 690.7L1920 685L1920 1081L1874.3 1081C1828.7 1081 1737.3 1081 1645.8 1081C1554.3 1081 1462.7 1081 1371.2 1081C1279.7 1081 1188.3 1081 1097 1081C1005.7 1081 914.3 1081 823 1081C731.7 1081 640.3 1081 548.8 1081C457.3 1081 365.7 1081 274.2 1081C182.7 1081 91.3 1081 45.7 1081L0 1081Z" fill="#b5179e"></path><path d="M0 801L45.7 803.5C91.3 806 182.7 811 274.2 812.7C365.7 814.3 457.3 812.7 548.8 816.8C640.3 821 731.7 831 823 827.5C914.3 824 1005.7 807 1097 787C1188.3 767 1279.7 744 1371.2 739.7C1462.7 735.3 1554.3 749.7 1645.8 766.2C1737.3 782.7 1828.7 801.3 1874.3 810.7L1920 820L1920 1081L1874.3 1081C1828.7 1081 1737.3 1081 1645.8 1081C1554.3 1081 1462.7 1081 1371.2 1081C1279.7 1081 1188.3 1081 1097 1081C1005.7 1081 914.3 1081 823 1081C731.7 1081 640.3 1081 548.8 1081C457.3 1081 365.7 1081 274.2 1081C182.7 1081 91.3 1081 45.7 1081L0 1081Z" fill="#a2239f"></path><path d="M0 847L45.7 852.5C91.3 858 182.7 869 274.2 859.7C365.7 850.3 457.3 820.7 548.8 821C640.3 821.3 731.7 851.7 823 861C914.3 870.3 1005.7 858.7 1097 843.2C1188.3 827.7 1279.7 808.3 1371.2 809.8C1462.7 811.3 1554.3 833.7 1645.8 849.2C1737.3 864.7 1828.7 873.3 1874.3 877.7L1920 882L1920 1081L1874.3 1081C1828.7 1081 1737.3 1081 1645.8 1081C1554.3 1081 1462.7 1081 1371.2 1081C1279.7 1081 1188.3 1081 1097 1081C1005.7 1081 914.3 1081 823 1081C731.7 1081 640.3 1081 548.8 1081C457.3 1081 365.7 1081 274.2 1081C182.7 1081 91.3 1081 45.7 1081L0 1081Z" fill="#8e2b9f"></path><path d="M0 887L45.7 890.3C91.3 893.7 182.7 900.3 274.2 913.2C365.7 926 457.3 945 548.8 944.5C640.3 944 731.7 924 823 924.5C914.3 925 1005.7 946 1097 943C1188.3 940 1279.7 913 1371.2 907.7C1462.7 902.3 1554.3 918.7 1645.8 918.3C1737.3 918 1828.7 901 1874.3 892.5L1920 884L1920 1081L1874.3 1081C1828.7 1081 1737.3 1081 1645.8 1081C1554.3 1081 1462.7 1081 1371.2 1081C1279.7 1081 1188.3 1081 1097 1081C1005.7 1081 914.3 1081 823 1081C731.7 1081 640.3 1081 548.8 1081C457.3 1081 365.7 1081 274.2 1081C182.7 1081 91.3 1081 45.7 1081L0 1081Z" fill="#7a309d"></path><path d="M0 1002L45.7 1004.2C91.3 1006.3 182.7 1010.7 274.2 1007.3C365.7 1004 457.3 993 548.8 988.8C640.3 984.7 731.7 987.3 823 982.7C914.3 978 1005.7 966 1097 966.5C1188.3 967 1279.7 980 1371.2 993.2C1462.7 1006.3 1554.3 1019.7 1645.8 1012C1737.3 1004.3 1828.7 975.7 1874.3 961.3L1920 947L1920 1081L1874.3 1081C1828.7 1081 1737.3 1081 1645.8 1081C1554.3 1081 1462.7 1081 1371.2 1081C1279.7 1081 1188.3 1081 1097 1081C1005.7 1081 914.3 1081 823 1081C731.7 1081 640.3 1081 548.8 1081C457.3 1081 365.7 1081 274.2 1081C182.7 1081 91.3 1081 45.7 1081L0 1081Z" fill="#663399"></path></svg>